<?xml version="1.0" encoding="UTF-8" standalone="no"?>
<svg
   xmlns:dc="http://purl.org/dc/elements/1.1/"
   xmlns:cc="http://creativecommons.org/ns#"
   xmlns:rdf="http://www.w3.org/1999/02/22-rdf-syntax-ns#"
   xmlns:svg="http://www.w3.org/2000/svg"
   xmlns="http://www.w3.org/2000/svg"
   version="1.1"
   x="0px"
   y="0px"
   viewBox="0 0 262 262"
   xml:space="preserve"
   id="svg2"><metadata
     id="metadata14"><rdf:RDF><cc:Work
         rdf:about=""><dc:format>image/svg+xml</dc:format><dc:type
           rdf:resource="http://purl.org/dc/dcmitype/StillImage" /><dc:title></dc:title></cc:Work></rdf:RDF></metadata><defs
     id="defs12" /><g
     transform="translate(-169.643,-55.82201)"
     id="Layer_2"><rect
       style="fill-opacity:0"
       y="0"
       x="0"
       width="512"
       height="512"
       id="rect5" /></g><g
     transform="translate(-124.25317,-55.82201)"
     id="logotype"><path
       style="fill:#ffffff"
       id="logo"
       d="m 247.622,226.381 c 0.359,5.936 1.247,11.342 2.586,15.518 0.705,2.194 3.069,3.409 5.28,2.705 0.071,-0.023 0.145,-0.046 0.218,-0.071 l -0.005,-0.012 c 2.069,-0.78 3.188,-3.044 2.506,-5.169 -1.004,-3.136 -1.726,-7.278 -2.091,-11.88 3.562,-0.035 7.124,-0.687 10.52,-1.965 3.15,-1.19 6.152,-2.92 8.866,-5.202 4.604,-3.877 7.999,-9.007 9.812,-14.844 1.796,-5.775 1.889,-11.715 0.269,-17.179 -0.36,-1.358 -2.961,-10.096 -10.396,-12.689 -4.449,-1.555 -8.883,-1.144 -12.812,1.184 -3.988,2.361 -7.235,6.585 -9.646,12.55 -3.966,9.816 -5.041,20.68 -5.249,28.063 0,0.049 -0.003,0.099 -0.003,0.142 -3.218,-1.287 -6.175,-3.35 -8.568,-6.158 -3.821,-4.481 -5.653,-10.172 -5.167,-16.019 0.488,-5.849 3.237,-11.163 7.744,-14.955 1.564,-1.313 3.295,-2.4 5.137,-3.237 -1.446,1.689 -1.311,4.228 0.339,5.753 1.695,1.57 4.354,1.481 5.934,-0.207 4.09,-4.355 7.551,-8.937 5.22,-12.9 -0.608,-1.035 -2.12,-2.77 -5.402,-2.753 -0.892,0.006 -1.667,0.139 -2.045,0.221 -5.376,0.902 -10.427,3.239 -14.608,6.758 -6.218,5.236 -10.016,12.564 -10.685,20.637 -0.671,8.073 1.856,15.921 7.125,22.101 4.109,4.814 9.415,8.041 15.121,9.608 z m 8.254,-8.746 c 0.267,-9.478 1.916,-18.425 4.649,-25.186 3.838,-9.501 8.577,-10.126 11.878,-8.973 2.886,1.005 4.673,5.495 5.068,6.972 l 0.043,0.15 c 2.399,8.039 -0.658,17.638 -7.438,23.347 -4.133,3.479 -9.192,5.185 -14.229,5.196 l -0.002,0 c 0.006,-0.503 0.017,-1.005 0.031,-1.506 z m 83.492,-118.052 -31.96,0 0,-22.281 c 0,-0.871 -0.443,-1.682 -1.176,-2.154 l -12.829,-8.267 c 0.079,-2.916 -2.206,-6.411 -6.002,-8.692 -4.851,-2.917 -10.311,-2.741 -12.194,0.394 -1.886,3.134 0.521,8.039 5.372,10.956 3.494,2.101 7.298,2.588 9.861,1.529 l 11.842,7.631 0,20.885 -92.564,0 0,-20.885 11.843,-7.631 c 2.562,1.059 6.366,0.572 9.861,-1.529 4.852,-2.917 7.257,-7.822 5.372,-10.956 -1.884,-3.134 -7.345,-3.311 -12.196,-0.394 -3.794,2.281 -6.081,5.776 -6.001,8.692 l -12.829,8.267 c -0.732,0.472 -1.175,1.283 -1.175,2.154 l 0,22.282 -31.961,0 c -1.651,0 -2.989,1.338 -2.989,2.989 l 0,13.81 c 0,0.024 0.006,0.048 0.007,0.072 0.004,0.16 0.019,0.32 0.048,0.479 0.005,0.021 0.005,0.043 0.01,0.065 0.035,0.167 0.089,0.329 0.152,0.488 0.019,0.048 0.04,0.094 0.062,0.14 0.055,0.119 0.116,0.233 0.188,0.345 0.023,0.038 0.045,0.078 0.07,0.114 0.012,0.015 0.019,0.033 0.03,0.048 l 16.673,23.075 c 0.563,0.778 1.464,1.239 2.424,1.239 l 15.877,0 9.933,128.55 -4.124,0 c -1.207,0 -2.296,0.725 -2.761,1.841 l -11.243,27.015 c -0.002,0.004 -0.003,0.008 -0.005,0.013 l -0.003,0.009 c -0.004,0.008 -0.004,0.017 -0.008,0.025 -0.079,0.195 -0.134,0.402 -0.171,0.617 -0.013,0.075 -0.016,0.148 -0.022,0.224 -0.009,0.095 -0.028,0.185 -0.028,0.281 l 0,13.81 c 0,1.651 1.339,2.989 2.989,2.989 l 112.522,0 c 1.649,0 2.988,-1.338 2.988,-2.989 l 0,-13.81 c 0,-0.097 -0.019,-0.187 -0.027,-0.281 -0.007,-0.075 -0.011,-0.148 -0.023,-0.224 -0.037,-0.213 -0.091,-0.419 -0.17,-0.615 -0.005,-0.011 -0.005,-0.02 -0.009,-0.027 l -0.002,-0.011 c -0.003,-0.003 -0.005,-0.007 -0.007,-0.011 l -11.244,-27.015 c -0.462,-1.116 -1.553,-1.841 -2.759,-1.841 l -4.124,0 9.933,-128.55 15.878,0 c 0.961,0 1.861,-0.461 2.423,-1.239 l 16.674,-23.075 c 0.011,-0.016 0.02,-0.033 0.03,-0.049 0.023,-0.036 0.047,-0.075 0.068,-0.113 0.071,-0.111 0.134,-0.226 0.188,-0.344 0.021,-0.047 0.045,-0.094 0.064,-0.143 0.063,-0.159 0.116,-0.32 0.15,-0.485 0.004,-0.023 0.006,-0.047 0.011,-0.07 0.028,-0.156 0.043,-0.314 0.047,-0.473 0,-0.025 0.007,-0.049 0.007,-0.074 l 0,-13.81 c -0.002,-1.652 -1.339,-2.99 -2.991,-2.99 z m -30.096,212.26 -106.543,0 0,-7.832 106.544,0 0,7.832 z m -10.256,-34.868 8.763,21.057 -103.557,0 8.764,-21.057 2.592,0 0.809,10.468 c 0.121,1.558 1.419,2.759 2.981,2.759 l 73.267,0 c 1.561,0 2.859,-1.201 2.979,-2.759 l 0.809,-10.468 2.593,0 z m -9.15,7.249 -67.731,0 -11.75,-152.064 91.23,0 -11.749,152.064 z m 31.3,-147.756 -13.887,0 0.546,-7.068 c 0.064,-0.831 -0.222,-1.65 -0.787,-2.261 -0.565,-0.612 -1.36,-0.959 -2.193,-0.959 l -97.689,0 c -0.833,0 -1.627,0.347 -2.193,0.959 -0.566,0.611 -0.852,1.431 -0.787,2.261 l 0.546,7.068 -13.888,0 -12.353,-17.096 155.039,0 -12.354,17.096 z m 15.214,-23.075 -160.759,0 0,-7.831 160.759,0 0,7.831 z" /></g></svg>